<?xml version="1.0" encoding="UTF-8" standalone="no"?>
<!-- Created with Inkscape (http://www.inkscape.org/) -->
<svg
   xmlns:dc="http://purl.org/dc/elements/1.1/"
   xmlns:cc="http://creativecommons.org/ns#"
   xmlns:rdf="http://www.w3.org/1999/02/22-rdf-syntax-ns#"
   xmlns:svg="http://www.w3.org/2000/svg"
   xmlns="http://www.w3.org/2000/svg"
   xmlns:xlink="http://www.w3.org/1999/xlink"
   xmlns:sodipodi="http://sodipodi.sourceforge.net/DTD/sodipodi-0.dtd"
   xmlns:inkscape="http://www.inkscape.org/namespaces/inkscape"
   width="1052.3622"
   height="744.09448"
   id="svg2"
   sodipodi:version="0.32"
   inkscape:version="0.46"
   version="1.0"
   sodipodi:docname="tripong_end.svg"
   inkscape:output_extension="org.inkscape.output.svg.inkscape"
   inkscape:export-filename="/home/alfem/acala/prog/tripong/tripong_end.png"
   inkscape:export-xdpi="131.50999"
   inkscape:export-ydpi="131.50999">
  <defs
     id="defs4">
    <linearGradient
       id="linearGradient3489">
      <stop
         style="stop-color:#ffff00;stop-opacity:1;"
         offset="0"
         id="stop3491" />
      <stop
         style="stop-color:#ffffff;stop-opacity:1;"
         offset="1"
         id="stop3493" />
    </linearGradient>
    <linearGradient
       id="linearGradient3481">
      <stop
         style="stop-color:#ffb56d;stop-opacity:1;"
         offset="0"
         id="stop3483" />
      <stop
         style="stop-color:#df7945;stop-opacity:1;"
         offset="1"
         id="stop3485" />
    </linearGradient>
    <linearGradient
       id="linearGradient3463">
      <stop
         style="stop-color:#0000ff;stop-opacity:1;"
         offset="0"
         id="stop3465" />
      <stop
         style="stop-color:#ffffff;stop-opacity:1;"
         offset="1"
         id="stop3467" />
    </linearGradient>
    <linearGradient
       id="linearGradient3165">
      <stop
         style="stop-color:#ff0000;stop-opacity:1;"
         offset="0"
         id="stop3167" />
      <stop
         style="stop-color:#fffffe;stop-opacity:1;"
         offset="1"
         id="stop3169" />
    </linearGradient>
    <inkscape:perspective
       sodipodi:type="inkscape:persp3d"
       inkscape:vp_x="0 : 526.18109 : 1"
       inkscape:vp_y="0 : 1000 : 0"
       inkscape:vp_z="744.09448 : 526.18109 : 1"
       inkscape:persp3d-origin="372.04724 : 350.78739 : 1"
       id="perspective10" />
    <linearGradient
       inkscape:collect="always"
       xlink:href="#linearGradient3165"
       id="linearGradient3171"
       x1="289.91809"
       y1="417.237"
       x2="398.61816"
       y2="272.71188"
       gradientUnits="userSpaceOnUse"
       gradientTransform="matrix(0.9996971,0,0,1.0991664,-27.280259,-31.750125)" />
    <linearGradient
       inkscape:collect="always"
       xlink:href="#linearGradient3463"
       id="linearGradient3469"
       x1="687.37378"
       y1="313.01111"
       x2="537.71313"
       y2="139.5898"
       gradientUnits="userSpaceOnUse"
       gradientTransform="translate(-30.866574,102.44382)" />
    <radialGradient
       inkscape:collect="always"
       xlink:href="#linearGradient3481"
       id="radialGradient3487"
       cx="427.96521"
       cy="279.28357"
       fx="427.96521"
       fy="279.28357"
       r="36.714287"
       gradientUnits="userSpaceOnUse"
       gradientTransform="matrix(-0.2381247,1,-0.9727998,-0.2316476,804.08631,-108.02162)" />
    <linearGradient
       inkscape:collect="always"
       xlink:href="#linearGradient3489"
       id="linearGradient3495"
       x1="428.6597"
       y1="497.63528"
       x2="428.81561"
       y2="430.83707"
       gradientUnits="userSpaceOnUse" />
  </defs>
  <sodipodi:namedview
     id="base"
     pagecolor="#ffffff"
     bordercolor="#666666"
     borderopacity="1.0"
     inkscape:pageopacity="0.0"
     inkscape:pageshadow="2"
     inkscape:zoom="0.7"
     inkscape:cx="469.1783"
     inkscape:cy="554.21103"
     inkscape:document-units="px"
     inkscape:current-layer="layer1"
     showgrid="false"
     inkscape:window-width="1152"
     inkscape:window-height="715"
     inkscape:window-x="50"
     inkscape:window-y="24" />
  <metadata
     id="metadata7">
    <rdf:RDF>
      <cc:Work
         rdf:about="">
        <dc:format>image/svg+xml</dc:format>
        <dc:type
           rdf:resource="http://purl.org/dc/dcmitype/StillImage" />
      </cc:Work>
    </rdf:RDF>
  </metadata>
  <g
     inkscape:label="Capa 1"
     inkscape:groupmode="layer"
     id="layer1">
    <rect
       style="fill:#cccccc;fill-opacity:1;stroke:none;stroke-width:2.0085578;stroke-miterlimit:4;stroke-dasharray:none;stroke-opacity:1"
       id="rect3461"
       width="545.47382"
       height="414.15396"
       x="169.7099"
       y="69.316864"
       sodipodi:insensitive="true" />
    <rect
       style="fill:#008000;fill-opacity:1;stroke:none;stroke-width:2;stroke-miterlimit:4;stroke-dasharray:none;stroke-opacity:1"
       id="rect2446"
       width="547.50269"
       height="127.27921"
       x="168.69547"
       y="360.23651" />
    <path
       style="fill:url(#linearGradient3171);fill-opacity:1;fill-rule:evenodd;stroke:#000000;stroke-width:1.04825258px;stroke-linecap:butt;stroke-linejoin:miter;stroke-opacity:1"
       d="M 336.18104,268.52975 C 271.79204,322.95413 256.27957,364.69914 219.78774,423.98328 C 317.07897,424.17464 272.54297,425.81866 379.02519,426.33863 C 344.30217,367.25804 342.67855,335.45679 336.18104,268.52975 z"
       id="path2385"
       sodipodi:nodetypes="cccc" />
    <path
       style="fill:url(#linearGradient3469);fill-opacity:1;fill-rule:evenodd;stroke:#000000;stroke-width:1px;stroke-linecap:butt;stroke-linejoin:miter;stroke-opacity:1"
       d="M 588.73243,260.10722 C 639.07059,329.65118 647.66026,357.00489 669.277,423.62427 C 599.68216,423.46406 577.19033,421.74727 513.18275,425.05645 C 554.70742,364.3032 562.46934,352.70824 588.73243,260.10722 z"
       id="path3393"
       sodipodi:nodetypes="cccc" />
    <path
       sodipodi:type="arc"
       style="fill:url(#radialGradient3487);fill-opacity:1;stroke:#000000;stroke-width:2;stroke-miterlimit:4;stroke-dasharray:none;stroke-opacity:1"
       id="path3397"
       sodipodi:cx="438.57144"
       sodipodi:cy="268.38019"
       sodipodi:rx="35.714287"
       sodipodi:ry="35.714287"
       d="M 474.28573,268.38019 A 35.714287,35.714287 0 1 1 402.85715,268.38019 A 35.714287,35.714287 0 1 1 474.28573,268.38019 z"
       transform="matrix(0.610895,0,0,0.610895,173.75261,235.96328)" />
    <path
       sodipodi:type="arc"
       style="fill:#ffffff;fill-opacity:1;stroke:#000000;stroke-width:2;stroke-miterlimit:4;stroke-dasharray:none;stroke-opacity:1"
       id="path3399"
       sodipodi:cx="374.7666"
       sodipodi:cy="225.88623"
       sodipodi:rx="17.172594"
       sodipodi:ry="16.162441"
       d="M 391.9392,225.88623 A 17.172594,16.162441 0 1 1 357.59401,225.88623 A 17.172594,16.162441 0 1 1 391.9392,225.88623 z"
       transform="matrix(0.7532557,0,0,0.7532557,48.118526,149.03122)" />
    <path
       sodipodi:type="arc"
       style="fill:#000000;fill-opacity:1;stroke:#000000;stroke-width:2;stroke-miterlimit:4;stroke-dasharray:none;stroke-opacity:1"
       id="path3403"
       sodipodi:cx="387.89859"
       sodipodi:cy="224.371"
       sodipodi:rx="5.0507627"
       sodipodi:ry="5.0507627"
       d="M 392.94935,224.371 A 5.0507627,5.0507627 0 1 1 382.84783,224.371 A 5.0507627,5.0507627 0 1 1 392.94935,224.371 z"
       transform="matrix(0.7532557,0,0,0.7532557,42.30385,151.14132)" />
    <path
       sodipodi:type="arc"
       style="fill:#ffffff;fill-opacity:1;stroke:#000000;stroke-width:2;stroke-miterlimit:4;stroke-dasharray:none;stroke-opacity:1"
       id="path3401"
       sodipodi:cx="365.17014"
       sodipodi:cy="224.87607"
       sodipodi:rx="16.667517"
       sodipodi:ry="18.182745"
       d="M 381.83765,224.87607 A 16.667517,18.182745 0 1 1 348.50262,224.87607 A 16.667517,18.182745 0 1 1 381.83765,224.87607 z"
       transform="matrix(0.7532557,0,0,0.7532557,40.19278,149.8722)" />
    <path
       sodipodi:type="arc"
       style="fill:#000000;fill-opacity:1;stroke:#000000;stroke-width:2;stroke-miterlimit:4;stroke-dasharray:none;stroke-opacity:1"
       id="path3405"
       sodipodi:cx="387.89859"
       sodipodi:cy="224.371"
       sodipodi:rx="5.0507627"
       sodipodi:ry="5.0507627"
       d="M 392.94935,224.371 A 5.0507627,5.0507627 0 1 1 382.84783,224.371 A 5.0507627,5.0507627 0 1 1 392.94935,224.371 z"
       transform="matrix(0.7532557,0,0,0.7532557,25.715801,150.77384)" />
    <path
       sodipodi:type="arc"
       style="fill:#ffffff;fill-opacity:1;stroke:#000000;stroke-width:2;stroke-miterlimit:4;stroke-dasharray:none;stroke-opacity:1"
       id="path2432"
       sodipodi:cx="374.7666"
       sodipodi:cy="225.88623"
       sodipodi:rx="17.172594"
       sodipodi:ry="16.162441"
       d="M 391.9392,225.88623 A 17.172594,16.162441 0 1 1 357.59401,225.88623 A 17.172594,16.162441 0 1 1 391.9392,225.88623 z"
       transform="matrix(-0.7532557,0,0,0.7532557,859.19385,154.5786)" />
    <path
       sodipodi:type="arc"
       style="fill:#000000;fill-opacity:1;stroke:#000000;stroke-width:2;stroke-miterlimit:4;stroke-dasharray:none;stroke-opacity:1"
       id="path2434"
       sodipodi:cx="387.89859"
       sodipodi:cy="224.371"
       sodipodi:rx="5.0507627"
       sodipodi:ry="5.0507627"
       d="M 392.94935,224.371 A 5.0507627,5.0507627 0 1 1 382.84783,224.371 A 5.0507627,5.0507627 0 1 1 392.94935,224.371 z"
       transform="matrix(-0.7532557,0,0,0.7532557,865.00853,156.6887)" />
    <path
       sodipodi:type="arc"
       style="fill:#ffffff;fill-opacity:1;stroke:#000000;stroke-width:2;stroke-miterlimit:4;stroke-dasharray:none;stroke-opacity:1"
       id="path2436"
       sodipodi:cx="365.17014"
       sodipodi:cy="224.87607"
       sodipodi:rx="16.667517"
       sodipodi:ry="18.182745"
       d="M 381.83765,224.87607 A 16.667517,18.182745 0 1 1 348.50262,224.87607 A 16.667517,18.182745 0 1 1 381.83765,224.87607 z"
       transform="matrix(-0.7532557,0,0,0.7532557,867.1196,155.41958)" />
    <path
       sodipodi:type="arc"
       style="fill:#000000;fill-opacity:1;stroke:#000000;stroke-width:2;stroke-miterlimit:4;stroke-dasharray:none;stroke-opacity:1"
       id="path2438"
       sodipodi:cx="387.89859"
       sodipodi:cy="224.371"
       sodipodi:rx="5.0507627"
       sodipodi:ry="5.0507627"
       d="M 392.94935,224.371 A 5.0507627,5.0507627 0 1 1 382.84783,224.371 A 5.0507627,5.0507627 0 1 1 392.94935,224.371 z"
       transform="matrix(-0.7532557,0,0,0.7532557,881.59657,156.32122)" />
    <path
       style="fill:#ffffff;fill-rule:evenodd;stroke:#000000;stroke-width:1px;stroke-linecap:butt;stroke-linejoin:miter;stroke-opacity:1"
       d="M 599.65592,286.25221 C 599.65592,286.25221 605.24184,259.76047 599.43185,236.87983 C 633.13818,216.24454 629.21956,177.08623 599.54568,158.30586 C 569.87179,139.52549 354.38628,126.04396 311.3296,152.72899 C 268.27291,179.41403 289.01365,233.31924 307.11312,236.41065 C 309.53494,256.44993 321.4137,288.33814 321.4137,288.33814 C 318.00072,265.80986 317.11312,259.94909 320.77121,241.46141 C 420.51789,255.60355 495.51584,255.60354 585.66607,240.95633 C 599.25236,258.07526 593.14069,269.63835 599.65592,286.25221 z"
       id="path2440"
       sodipodi:nodetypes="cczzccccc" />
    <text
       xml:space="preserve"
       style="font-size:80.73006439px;font-style:normal;font-variant:normal;font-weight:bold;font-stretch:normal;fill:#000000;fill-opacity:1;stroke:none;stroke-width:1px;stroke-linecap:butt;stroke-linejoin:miter;stroke-opacity:1;font-family:Adventure;-inkscape-font-specification:Adventure Semi-Bold"
       x="351.22467"
       y="201.03975"
       id="text2442"
       transform="scale(0.8856799,1.1290761)"><tspan
         sodipodi:role="line"
         id="tspan2444"
         x="351.22467"
         y="201.03975">¡¡OTRA!!</tspan></text>
  </g>
</svg>
